<?xml version="1.0" standalone="no"?>
<!DOCTYPE svg PUBLIC "-//W3C//DTD SVG 20010904//EN"
 "http://www.w3.org/TR/2001/REC-SVG-20010904/DTD/svg10.dtd">
<svg version="1.0" xmlns="http://www.w3.org/2000/svg"
 width="1279.000000pt" height="1279.000000pt" viewBox="0 0 1279.000000 1279.000000"
 preserveAspectRatio="xMidYMid meet">
<metadata>
Created by potrace 1.16, written by Peter Selinger 2001-2019
</metadata>
<g transform="translate(0.000000,1279.000000) scale(0.100000,-0.100000)"
fill="#000000" stroke="none">
<path d="M6030 12729 c-531 -31 -1099 -146 -1645 -332 -195 -67 -301 -109
-495 -195 -228 -101 -521 -255 -736 -387 -641 -395 -1181 -873 -1654 -1466
-64 -80 -132 -168 -150 -195 -19 -27 -36 -51 -39 -54 -8 -7 -35 -46 -128 -185
-627 -940 -983 -2017 -1044 -3158 -13 -237 0 -722 26 -967 45 -420 134 -855
251 -1228 53 -168 146 -431 178 -502 8 -19 36 -84 62 -145 152 -358 395 -789
644 -1140 253 -356 618 -767 915 -1030 159 -140 177 -156 320 -270 778 -620
1677 -1035 2695 -1245 424 -88 1017 -133 1469 -111 941 45 1767 260 2581 670
616 310 1149 697 1640 1191 1011 1016 1641 2327 1800 3745 80 722 26 1517
-151 2230 -352 1412 -1190 2665 -2369 3545 -975 727 -2173 1164 -3370 1230
-202 11 -604 11 -800 -1z m842 -109 c644 -44 1222 -174 1839 -413 63 -25 135
-54 160 -65 24 -11 86 -39 137 -61 146 -64 383 -186 542 -279 132 -76 460
-287 506 -325 10 -9 69 -53 129 -98 314 -236 684 -582 951 -889 860 -994 1383
-2226 1494 -3525 74 -870 -21 -1679 -295 -2501 -343 -1028 -966 -1964 -1794
-2694 -41 -36 -79 -70 -85 -75 -9 -9 -107 -89 -156 -128 -52 -43 -301 -225
-380 -279 -97 -67 -405 -258 -415 -258 -3 0 -22 -11 -43 -23 -65 -41 -332
-176 -472 -239 -252 -112 -476 -196 -775 -289 -363 -114 -810 -197 -1295 -241
-174 -16 -785 -16 -955 0 -434 41 -776 99 -1100 187 -811 220 -1479 545 -2140
1041 -272 204 -391 308 -675 593 -488 490 -852 993 -1153 1597 -460 922 -676
1892 -654 2937 17 796 180 1539 502 2292 209 488 516 999 854 1420 188 234
504 567 716 752 167 147 172 151 250 214 854 686 1889 1138 2975 1298 143 21
411 49 520 54 171 8 675 6 812 -3z"/>
<path d="M7275 8709 c-181 -27 -347 -121 -525 -299 -359 -361 -523 -882 -374
-1196 53 -113 174 -211 310 -253 74 -24 273 -45 318 -35 43 9 76 33 76 54 0
34 -23 41 -111 34 -326 -25 -545 210 -525 566 8 154 49 287 137 440 188 330
620 657 792 601 163 -54 236 -424 208 -1056 -16 -381 -55 -752 -142 -1338 -98
-671 -106 -749 -73 -781 21 -21 84 -20 110 2 28 23 32 35 114 332 161 580 363
1284 410 1433 146 455 312 802 420 875 43 29 64 28 94 -4 36 -39 55 -121 68
-294 13 -182 -1 -539 -32 -778 -58 -453 -68 -652 -36 -729 61 -147 226 -149
415 -7 32 24 105 98 162 165 l103 121 15 -39 c28 -66 39 -80 86 -103 38 -19
59 -21 128 -18 94 4 149 26 220 88 25 22 49 40 54 40 5 0 15 -10 22 -23 18
-34 87 -75 139 -83 68 -10 179 2 262 30 86 28 240 94 290 125 48 29 55 27 69
-21 34 -114 81 -154 170 -145 52 5 59 9 109 62 57 61 106 151 141 257 29 86
26 111 -14 119 -48 9 -72 -8 -96 -70 -48 -119 -118 -231 -144 -231 -20 0 -30
23 -55 120 -31 127 -37 139 -75 146 -35 6 -74 -9 -76 -29 -1 -7 -2 -32 -3 -55
-1 -42 -3 -45 -56 -75 -152 -85 -373 -155 -454 -143 -48 8 -96 46 -96 77 0 17
8 19 63 19 117 0 197 47 197 115 0 96 -170 159 -287 106 -46 -21 -95 -81 -114
-139 -21 -69 -161 -191 -236 -207 -43 -9 -91 17 -109 60 -9 21 -14 70 -14 127
0 110 -13 138 -63 138 -48 -1 -69 -22 -74 -77 -5 -47 -10 -52 -157 -198 -156
-155 -222 -207 -289 -227 -47 -14 -65 -5 -90 45 -15 29 -19 59 -18 135 1 96 6
146 55 532 37 296 50 478 43 635 -7 166 -18 231 -53 343 -46 143 -95 192 -194
192 -72 0 -113 -14 -171 -59 -62 -49 -163 -173 -217 -268 -81 -144 -122 -254
-247 -668 -81 -269 -159 -510 -182 -562 l-17 -38 -4 29 c-2 16 4 83 12 150 89
679 101 1281 32 1580 -20 86 -82 220 -125 268 -63 73 -173 105 -296 87z"/>
<path d="M2075 8550 c-462 -27 -892 -189 -1132 -428 -134 -133 -188 -260 -166
-388 22 -128 97 -231 203 -278 75 -34 143 -34 148 0 2 17 -9 29 -51 53 -59 33
-115 89 -144 143 -13 25 -18 56 -18 123 0 123 27 179 144 296 100 99 163 142
316 215 218 103 430 156 706 176 479 33 836 -107 939 -370 104 -268 -81 -669
-439 -950 -160 -126 -397 -261 -557 -318 -90 -31 -84 -61 -84 413 0 606 -18
799 -75 825 -13 6 -35 8 -49 4 -38 -9 -47 -34 -35 -97 14 -69 24 -1131 12
-1179 -7 -28 -14 -35 -34 -35 -23 0 -24 4 -27 64 -2 35 6 211 17 390 27 428
27 429 -4 443 -32 14 -83 -6 -90 -36 -26 -121 -77 -988 -77 -1321 -1 -466 55
-889 123 -925 42 -23 109 -7 129 29 43 80 77 434 90 935 10 400 2 371 110 401
82 24 283 105 375 153 372 191 685 551 770 886 60 237 5 419 -172 567 -90 76
-262 149 -433 184 -71 15 -287 36 -340 33 -14 0 -83 -4 -155 -8z m-288 -1907
c7 -17 -14 -701 -24 -790 -3 -29 -9 -53 -13 -53 -21 0 -35 209 -35 513 0 304
1 319 19 333 26 19 45 18 53 -3z"/>
<path d="M4962 8110 c-12 -5 -26 -20 -31 -32 -6 -13 -17 -120 -26 -238 -8
-118 -20 -219 -26 -225 -5 -5 -73 -12 -151 -15 -122 -4 -142 -7 -152 -23 -9
-15 -7 -22 13 -38 20 -16 39 -19 138 -19 63 0 123 -5 135 -11 19 -10 20 -17
13 -227 -6 -205 1 -342 32 -578 l5 -40 -59 -27 c-77 -34 -133 -46 -218 -47
-89 0 -111 14 -184 116 -68 94 -101 114 -191 114 -73 0 -98 -11 -168 -69 -27
-23 -53 -41 -59 -41 -6 0 -17 16 -23 35 -28 84 -130 64 -130 -26 0 -36 -3 -40
-48 -63 -142 -72 -234 -49 -297 75 -31 61 -48 72 -103 73 -60 1 -86 -18 -147
-112 -52 -79 -134 -172 -152 -172 -47 0 -64 108 -37 237 10 51 -73 73 -114 31
-47 -51 -54 -186 -14 -264 35 -69 88 -104 156 -104 72 0 142 48 222 152 25 32
51 58 59 58 8 0 29 -18 47 -41 18 -23 52 -52 76 -66 38 -22 51 -25 125 -22 70
4 93 9 160 41 78 38 97 40 97 12 0 -27 38 -54 78 -54 50 0 71 16 142 110 57
75 105 120 129 120 6 0 36 -35 68 -77 32 -42 76 -90 99 -106 85 -59 285 -58
443 3 41 16 75 28 76 27 11 -33 52 -104 82 -142 59 -74 117 -100 223 -100 99
0 135 15 218 91 l53 47 35 -41 c42 -50 88 -66 168 -60 102 9 165 50 231 153
32 51 38 55 73 55 21 0 64 -5 96 -11 141 -26 346 50 346 128 0 19 -5 23 -30
23 -17 0 -52 -11 -78 -24 -76 -39 -157 -59 -205 -51 -94 16 -137 60 -137 141
0 42 -5 59 -25 82 -55 65 -210 60 -228 -7 -6 -23 0 -31 35 -54 86 -54 72 -207
-28 -310 -51 -52 -81 -48 -111 13 -41 81 -24 192 43 279 39 51 42 66 15 81
-92 48 -196 -63 -226 -242 -4 -28 -22 -54 -68 -102 -51 -54 -72 -67 -119 -81
-72 -20 -99 -13 -146 40 -76 87 -116 240 -134 510 -11 183 -4 479 13 506 6 11
58 15 253 19 216 4 247 7 263 23 16 16 16 18 0 35 -16 15 -45 17 -257 20 -216
3 -241 5 -249 20 -6 11 -5 95 2 222 6 113 8 217 4 231 -4 14 -18 31 -32 37
-30 14 -32 14 -63 2z"/>
<path d="M9227 7082 c-21 -22 -27 -38 -27 -73 0 -54 13 -69 60 -69 58 1 90 39
90 107 0 48 -14 63 -60 63 -27 0 -43 -7 -63 -28z"/>
<path d="M11848 7001 c-59 -23 -137 -80 -171 -124 -26 -34 -49 -99 -42 -120
19 -65 18 -67 -40 -92 -78 -35 -119 -33 -182 10 -91 61 -151 48 -272 -58 -78
-69 -131 -104 -131 -87 0 32 70 143 131 207 53 56 95 83 130 83 23 0 59 26 59
43 0 3 -7 13 -16 21 -11 11 -34 16 -77 16 -52 0 -70 -5 -113 -33 -102 -64
-171 -141 -227 -253 -61 -122 -59 -182 10 -210 82 -35 175 7 342 155 35 30 60
34 110 16 88 -31 243 -12 306 37 l28 22 63 -67 c85 -89 107 -134 102 -207 -3
-43 -11 -66 -36 -100 -88 -121 -101 -153 -79 -184 8 -11 31 -20 58 -23 35 -4
51 0 79 19 42 29 82 85 105 152 14 39 39 71 104 137 47 47 108 103 135 125 76
61 76 60 76 125 0 32 -3 59 -6 59 -4 0 -57 -37 -118 -83 -121 -90 -161 -117
-173 -117 -5 0 -16 13 -26 29 -9 16 -49 64 -88 107 -118 130 -129 160 -84 227
26 38 93 87 118 87 8 0 21 -18 30 -40 11 -28 23 -41 42 -46 72 -18 118 50 79
116 -39 67 -131 88 -226 51z"/>
<path d="M3563 4265 c-52 -22 -69 -78 -37 -124 9 -13 46 -36 83 -52 72 -32 91
-50 91 -86 0 -29 -27 -43 -85 -43 -42 0 -47 3 -66 35 -29 49 -57 44 -43 -9 8
-34 58 -49 141 -44 59 4 69 8 94 36 52 58 36 98 -54 143 -76 38 -107 66 -107
95 0 30 23 46 67 46 28 0 42 -6 58 -26 11 -14 27 -26 34 -26 22 0 7 44 -19 57
-33 17 -117 16 -157 -2z"/>
<path d="M4623 4269 c15 -9 17 -28 17 -159 0 -93 -4 -150 -10 -150 -5 0 -10
-4 -10 -10 0 -6 50 -10 129 -10 137 0 141 2 141 51 0 27 -28 24 -52 -6 -16
-21 -28 -25 -69 -25 l-49 0 0 148 c0 102 4 152 12 160 9 9 -3 12 -57 12 -53
-1 -66 -3 -52 -11z"/>
<path d="M8310 4269 c-43 -18 -60 -40 -60 -78 1 -50 16 -66 102 -105 41 -19
78 -42 82 -51 18 -49 -8 -75 -75 -75 -46 0 -51 2 -71 35 -23 41 -42 41 -46 2
-3 -23 2 -30 34 -43 77 -32 182 -14 218 38 36 51 13 88 -92 143 -75 39 -91 61
-77 104 5 18 15 21 56 21 43 0 51 -3 61 -25 13 -30 48 -34 48 -6 0 10 -7 24
-15 31 -20 16 -133 23 -165 9z"/>
<path d="M9903 4269 c15 -9 17 -27 17 -154 0 -85 -4 -146 -10 -150 -30 -18 1
-25 115 -25 113 0 125 2 135 19 27 51 -7 71 -42 26 -18 -23 -27 -26 -71 -23
l-51 3 3 145 c1 82 7 150 13 157 8 10 -4 13 -58 13 -52 -1 -65 -3 -51 -11z"/>
<path d="M2749 4261 c10 -6 13 -41 12 -152 -1 -82 -6 -145 -11 -147 -6 -2 -10
-8 -10 -13 0 -12 117 -12 124 0 3 5 -1 11 -9 15 -11 4 -15 21 -15 64 l0 59 65
6 c35 3 76 14 89 23 49 31 42 125 -9 144 -32 12 -256 13 -236 1z m192 -18 c19
-19 22 -82 5 -108 -14 -21 -24 -25 -61 -25 l-45 0 0 76 0 77 46 -6 c25 -2 50
-9 55 -14z"/>
<path d="M3180 4254 c0 -14 -97 -245 -120 -286 -14 -25 -13 -28 16 -28 20 0
24 4 20 18 -4 10 3 40 14 65 l21 47 65 0 65 0 20 -45 c11 -25 17 -54 14 -65
-6 -18 -2 -20 45 -19 34 1 49 5 46 13 -2 6 -25 61 -51 121 -83 200 -80 195
-120 195 -25 0 -35 -4 -35 -16z"/>
<path d="M3827 4244 c-7 -37 19 -42 44 -10 15 20 29 26 48 24 l26 -3 3 -135
c3 -126 1 -136 -18 -152 -27 -22 -18 -25 65 -26 66 0 69 1 48 15 -22 15 -23
21 -23 159 l0 144 29 0 c20 0 34 -8 45 -25 23 -35 48 -33 44 3 l-3 27 -151 3
-152 3 -5 -27z"/>
<path d="M4243 4259 c15 -9 17 -27 17 -150 0 -115 -3 -141 -15 -145 -37 -15 5
-23 113 -22 147 1 152 2 152 39 0 36 -23 39 -46 4 -14 -22 -23 -25 -75 -25
l-59 0 0 70 0 70 55 0 c30 0 55 5 55 10 0 6 -25 10 -55 10 l-56 0 3 68 3 67
56 3 c51 3 58 0 73 -23 23 -35 46 -33 46 5 l0 30 -142 0 c-102 -1 -138 -4
-125 -11z"/>
<path d="M4988 4258 c15 -15 17 -284 2 -293 -5 -3 -10 -11 -10 -16 0 -10 244
-9 260 1 5 3 12 18 15 33 6 23 4 27 -13 27 -11 0 -27 -11 -36 -25 -16 -24 -22
-26 -74 -23 l-57 3 -3 68 -3 67 55 0 c75 0 82 18 9 22 l-58 3 0 65 0 65 57 3
c52 3 58 1 74 -23 21 -33 59 -35 50 -2 -3 12 -6 25 -6 30 0 4 -62 7 -137 7
-107 0 -134 -3 -125 -12z"/>
<path d="M5370 4260 c20 -12 22 -291 3 -298 -34 -11 -6 -22 52 -21 62 1 82 10
50 23 -11 4 -15 21 -15 66 0 57 1 60 24 60 20 0 33 -14 68 -72 44 -73 45 -73
91 -76 44 -3 64 10 33 21 -23 9 -90 131 -75 136 25 8 59 50 59 73 -1 82 -30
98 -187 98 -78 0 -113 -3 -103 -10z m176 -6 c41 -11 57 -81 28 -122 -12 -18
-25 -22 -65 -22 l-49 0 0 75 0 75 33 0 c17 0 42 -3 53 -6z"/>
<path d="M5783 4259 c15 -9 17 -27 17 -150 0 -115 -3 -141 -15 -145 -30 -12
-3 -24 51 -23 51 2 67 10 44 24 -6 4 -10 63 -10 145 0 122 2 140 18 149 13 8
-1 10 -53 10 -52 0 -66 -2 -52 -10z"/>
<path d="M6113 4253 c-2 -22 -111 -274 -124 -288 -16 -16 -10 -25 15 -25 27 0
42 15 27 25 -6 3 -1 26 11 55 l21 50 67 0 67 0 17 -45 c10 -24 15 -54 11 -65
-6 -18 -2 -20 43 -20 56 0 67 7 49 29 -7 9 -40 80 -72 159 l-59 142 -36 0
c-27 0 -36 -4 -37 -17z"/>
<path d="M6764 4262 c5 -9 -79 -209 -132 -314 -2 -5 10 -8 27 -8 30 0 41 13
22 24 -5 4 0 29 12 56 l21 50 67 0 66 0 17 -45 c10 -24 15 -54 11 -65 -6 -18
-2 -20 50 -20 31 0 55 3 53 8 -28 54 -77 165 -105 235 l-35 87 -40 0 c-21 0
-37 -4 -34 -8z"/>
<path d="M7103 4260 c15 -10 17 -28 17 -151 0 -115 -3 -141 -15 -145 -34 -13
-11 -24 50 -24 61 0 84 11 50 24 -11 4 -15 21 -15 66 0 61 0 61 27 58 21 -2
36 -18 70 -75 l44 -72 45 1 c50 1 52 3 25 26 -26 24 -85 132 -71 132 6 0 22
11 35 25 31 30 33 83 6 116 -18 23 -26 24 -153 27 -97 2 -128 0 -115 -8z m204
-26 c18 -25 16 -89 -3 -108 -10 -10 -33 -16 -65 -16 l-49 0 0 68 c0 38 3 72 8
76 13 14 95 -1 109 -20z"/>
<path d="M7457 4244 c-7 -37 19 -42 44 -10 15 20 29 26 48 24 l26 -3 3 -135
c3 -128 2 -136 -19 -152 -12 -10 -17 -18 -13 -19 113 -11 172 -6 126 12 -22 8
-23 11 -20 151 l3 143 26 3 c19 2 31 -4 43 -22 23 -36 48 -34 44 2 l-3 27
-151 3 -152 3 -5 -27z"/>
<path d="M7873 4259 c15 -9 17 -27 17 -149 0 -122 -2 -140 -17 -149 -15 -8
-16 -10 -3 -15 12 -4 232 -2 263 3 4 0 7 15 7 31 0 37 -23 40 -46 5 -14 -22
-23 -25 -75 -25 l-59 0 0 70 0 70 55 0 c30 0 55 5 55 10 0 6 -25 10 -55 10
l-55 0 0 70 0 70 55 0 c46 0 59 -4 77 -25 29 -34 48 -32 48 5 l0 30 -142 0
c-102 -1 -138 -4 -125 -11z"/>
<path d="M8666 4128 c-33 -79 -65 -150 -73 -159 -20 -23 -16 -29 18 -29 25 0
30 3 25 17 -4 9 1 38 11 65 l17 48 67 0 67 0 18 -47 c10 -27 17 -55 16 -64 -2
-12 8 -15 48 -16 50 -2 59 4 40 23 -5 5 -36 75 -69 154 -59 143 -60 145 -93
148 l-33 3 -59 -143z"/>
<path d="M9053 4260 c15 -10 17 -28 17 -151 0 -115 -3 -141 -15 -145 -24 -10
-8 -22 30 -22 38 0 54 12 30 22 -12 4 -15 29 -15 131 l0 126 108 -138 c59 -76
116 -139 125 -141 15 -3 17 10 17 147 0 144 1 151 22 165 22 15 20 16 -32 16
-52 0 -54 -1 -32 -16 20 -14 22 -23 21 -117 l0 -102 -29 35 c-16 19 -57 71
-92 115 l-63 80 -55 3 c-42 1 -51 0 -37 -8z"/>
<path d="M9570 4258 c0 -22 -122 -298 -132 -298 -5 0 -6 -4 -3 -10 3 -5 17
-10 31 -10 21 0 24 4 19 20 -3 11 3 39 14 65 l20 45 65 0 65 0 21 -47 c11 -25
18 -55 14 -65 -5 -16 1 -18 45 -18 55 0 56 1 41 28 -6 9 -37 80 -69 157 l-58
140 -36 3 c-26 2 -37 -1 -37 -10z"/>
</g>
</svg>
