<?xml version="1.0" standalone="no"?>
<!DOCTYPE svg PUBLIC "-//W3C//DTD SVG 20010904//EN"
 "http://www.w3.org/TR/2001/REC-SVG-20010904/DTD/svg10.dtd">
<svg version="1.0" xmlns="http://www.w3.org/2000/svg"
 width="1600.000000pt" height="1600.000000pt" viewBox="0 0 1600.000000 1600.000000"
 preserveAspectRatio="xMidYMid meet">
<metadata>
Created by potrace 1.16, written by Peter Selinger 2001-2019
</metadata>
<g transform="translate(0.000000,1600.000000) scale(0.100000,-0.100000)"
fill="#000000" stroke="none">
<path d="M7510 15189 c-421 -23 -895 -105 -1330 -230 -849 -242 -1620 -652
-2320 -1235 -363 -301 -754 -717 -1033 -1099 -20 -27 -41 -55 -45 -61 -24 -28
-217 -322 -279 -424 -605 -995 -927 -2191 -898 -3335 19 -763 137 -1408 382
-2085 42 -115 76 -200 155 -385 53 -122 203 -417 293 -576 617 -1086 1582
-1991 2710 -2544 1367 -669 2898 -819 4387 -430 656 171 1302 464 1893 858
902 602 1638 1436 2134 2417 472 932 705 1995 663 3018 -17 412 -52 713 -123
1067 -227 1127 -769 2183 -1556 3030 -725 780 -1597 1348 -2595 1690 -390 134
-719 211 -1208 285 -294 44 -837 62 -1230 39z m825 -109 c481 -32 949 -118
1415 -262 187 -58 473 -163 594 -218 23 -10 83 -37 134 -59 409 -180 906 -483
1289 -787 262 -208 627 -557 839 -804 769 -896 1258 -1942 1438 -3081 161
-1012 81 -1989 -240 -2948 -264 -789 -710 -1553 -1258 -2161 -117 -129 -386
-398 -506 -505 -310 -278 -720 -571 -1089 -779 -119 -68 -438 -226 -564 -280
-342 -148 -698 -267 -1027 -345 -577 -137 -1214 -194 -1785 -161 -308 18 -616
58 -905 116 -1030 209 -1988 682 -2810 1388 -98 84 -470 450 -571 561 -214
237 -534 669 -684 925 -349 596 -559 1102 -710 1715 -138 560 -194 1073 -182
1660 20 922 242 1801 667 2640 313 616 699 1139 1211 1640 96 94 217 206 269
250 52 44 97 82 100 85 14 15 160 128 270 210 414 307 889 572 1381 771 584
235 1256 390 1864 428 188 12 685 12 860 1z"/>
<path d="M8745 11169 c-175 -26 -338 -116 -507 -282 -136 -132 -233 -268 -318
-442 -175 -358 -173 -695 4 -883 100 -106 222 -156 422 -173 110 -9 127 -9
159 7 41 19 53 39 38 63 -8 13 -31 16 -134 16 -109 1 -132 4 -191 27 -136 51
-235 159 -281 303 -29 91 -31 295 -3 394 25 92 68 195 116 281 185 327 615
654 791 601 77 -23 150 -154 182 -326 50 -263 45 -758 -13 -1295 -33 -304 -55
-465 -155 -1145 -40 -277 -45 -383 -17 -408 24 -22 81 -21 110 1 25 20 25 18
167 527 47 171 100 357 116 415 17 58 46 161 65 230 19 69 41 148 49 175 9 28
35 118 59 200 143 487 273 809 404 1000 49 71 100 115 134 115 126 0 152 -515
63 -1230 -60 -478 -54 -599 35 -673 79 -67 213 -41 359 69 32 24 105 98 162
165 l103 121 13 -36 c33 -97 93 -131 220 -124 90 4 146 27 216 88 25 22 47 40
50 40 2 0 24 -20 48 -44 49 -49 95 -66 177 -66 116 0 263 45 446 136 99 49
106 51 106 28 0 -35 59 -139 88 -156 36 -21 91 -23 135 -4 70 29 157 159 206
308 29 86 26 111 -14 119 -48 9 -72 -8 -96 -70 -48 -119 -118 -231 -144 -231
-20 0 -30 23 -55 120 -28 115 -38 137 -63 144 -65 17 -97 -10 -90 -76 l5 -45
-55 -31 c-162 -92 -378 -160 -464 -147 -45 7 -93 46 -93 76 0 17 8 19 63 19
117 0 197 47 197 115 0 67 -87 125 -186 125 -104 -1 -183 -58 -214 -155 -22
-72 -160 -194 -237 -210 -43 -9 -91 17 -109 60 -9 21 -14 70 -14 127 0 110
-13 138 -63 138 -18 0 -37 -4 -43 -8 -18 -12 -34 -49 -34 -81 0 -34 -81 -127
-230 -264 -134 -123 -227 -176 -268 -151 -37 23 -53 79 -53 181 1 96 5 141 55
533 49 388 57 652 26 837 -13 79 -64 230 -88 263 -75 102 -232 94 -346 -17
-64 -63 -141 -163 -188 -248 -80 -143 -120 -252 -258 -710 -67 -222 -146 -463
-167 -512 l-17 -38 -4 29 c-2 16 4 83 12 150 92 697 102 1306 27 1597 -23 89
-78 203 -122 253 -61 71 -172 103 -294 85z"/>
<path d="M3545 11009 c-465 -27 -895 -190 -1134 -428 -91 -91 -135 -162 -158
-255 -40 -162 42 -335 193 -406 78 -38 147 -39 152 -4 2 17 -9 29 -51 53 -66
38 -122 97 -149 158 -30 67 -23 178 16 258 34 71 170 211 259 268 253 162 576
256 932 272 297 13 533 -38 703 -154 313 -212 275 -628 -93 -1019 -172 -183
-489 -389 -717 -466 -95 -33 -88 -63 -88 403 0 436 -11 683 -36 769 -16 58
-44 79 -88 68 -38 -9 -47 -34 -35 -97 14 -69 24 -1131 12 -1179 -7 -28 -14
-35 -34 -35 -23 0 -24 3 -27 69 -2 38 6 212 18 388 26 409 26 424 -1 438 -26
14 -76 4 -88 -18 -13 -25 -45 -414 -72 -882 -36 -603 15 -1284 101 -1370 24
-24 86 -27 117 -5 61 43 96 340 113 964 6 223 13 348 20 357 7 7 55 27 108 45
267 89 496 208 657 344 252 213 430 483 481 733 83 400 -234 687 -810 732 -66
5 -132 9 -146 8 -14 0 -83 -4 -155 -9z m-288 -1905 c7 -18 -14 -704 -23 -791
-4 -29 -10 -53 -14 -53 -21 0 -35 209 -35 513 0 304 1 319 19 333 26 19 45 18
53 -2z"/>
<path d="M6432 10570 c-12 -5 -26 -20 -31 -32 -5 -13 -17 -120 -26 -238 -9
-118 -21 -219 -26 -225 -5 -5 -73 -12 -151 -15 -122 -4 -142 -7 -152 -23 -9
-15 -7 -22 13 -38 20 -16 39 -19 138 -19 63 0 123 -5 134 -11 20 -10 20 -17
14 -232 -6 -211 1 -335 31 -568 l6 -45 -58 -27 c-77 -34 -135 -47 -214 -46
-88 0 -120 19 -189 114 -68 95 -101 115 -191 115 -73 0 -98 -11 -168 -69 -27
-23 -53 -41 -59 -41 -6 0 -17 16 -23 35 -28 85 -130 64 -130 -26 0 -40 -1 -40
-66 -71 -128 -60 -215 -37 -274 73 -38 73 -53 84 -109 84 -58 0 -86 -21 -137
-100 -52 -80 -120 -162 -146 -176 -17 -9 -24 -7 -42 10 -18 19 -21 33 -20 104
0 45 3 94 7 109 9 35 -14 58 -57 58 -40 0 -70 -30 -85 -85 -42 -155 42 -305
172 -305 73 0 143 47 223 152 25 32 51 58 59 58 8 0 29 -18 47 -41 18 -23 52
-52 76 -66 38 -22 51 -25 125 -22 70 4 93 9 160 41 78 38 97 40 97 12 0 -27
38 -54 78 -54 50 0 71 16 142 110 57 75 105 120 129 120 6 0 35 -33 65 -72 65
-88 90 -113 136 -131 92 -38 278 -27 409 23 41 16 75 28 76 27 11 -33 52 -104
82 -142 59 -74 117 -100 223 -100 99 0 135 15 218 91 l53 47 35 -41 c42 -50
88 -66 168 -60 102 9 167 53 236 162 33 52 48 55 167 36 147 -24 343 49 343
127 0 32 -35 30 -119 -7 -119 -52 -193 -59 -263 -24 -47 24 -68 61 -68 120 0
42 -5 59 -25 82 -55 65 -210 60 -228 -7 -6 -23 0 -31 35 -54 86 -54 71 -212
-29 -312 -50 -50 -80 -45 -110 15 -38 74 -27 174 25 253 59 88 59 87 38 103
-25 18 -69 18 -105 -1 -53 -27 -108 -132 -126 -237 -4 -28 -22 -54 -68 -102
-51 -54 -72 -67 -119 -81 -72 -20 -99 -13 -146 40 -70 81 -114 234 -132 466
-16 209 -8 534 13 556 5 4 118 10 252 13 215 4 246 7 262 23 16 16 16 18 0 35
-16 15 -47 18 -258 22 -198 4 -242 8 -250 20 -5 8 -8 40 -5 70 11 109 19 358
13 382 -4 13 -18 30 -32 36 -30 14 -32 14 -63 2z"/>
<path d="M10697 9542 c-21 -22 -27 -38 -27 -73 0 -25 5 -50 12 -57 13 -13 66
-16 93 -6 37 15 61 124 33 152 -23 23 -82 14 -111 -16z"/>
<path d="M13318 9461 c-63 -25 -139 -82 -172 -129 -28 -41 -47 -95 -41 -115
19 -65 18 -67 -40 -92 -78 -35 -119 -33 -182 10 -91 61 -151 48 -272 -58 -78
-69 -131 -104 -131 -87 0 32 70 143 131 207 53 56 95 83 130 83 23 0 59 26 59
43 0 22 -37 37 -92 37 -51 0 -69 -5 -119 -35 -80 -49 -176 -156 -221 -246 -62
-128 -60 -187 9 -215 80 -34 179 9 331 145 46 41 63 45 123 27 105 -32 253
-12 311 41 19 17 21 16 83 -49 86 -90 108 -135 103 -208 -3 -43 -11 -66 -36
-100 -88 -121 -101 -153 -79 -184 8 -11 31 -20 58 -23 35 -4 51 0 79 19 42 29
82 85 105 152 14 39 39 71 104 137 47 47 108 103 135 125 76 61 76 60 76 125
0 32 -3 59 -6 59 -4 0 -57 -37 -118 -83 -121 -90 -161 -117 -173 -117 -5 0
-16 13 -25 28 -9 15 -49 64 -88 107 -118 131 -130 162 -87 226 25 37 93 88
118 89 9 0 22 -16 32 -40 11 -28 23 -41 42 -46 72 -18 118 50 79 116 -39 67
-131 88 -226 51z"/>
<path d="M5033 6725 c-52 -22 -69 -78 -37 -124 9 -13 46 -36 83 -52 72 -32 91
-50 91 -86 0 -29 -27 -43 -85 -43 -42 0 -47 3 -66 35 -29 49 -57 44 -43 -9 12
-50 153 -65 215 -23 75 51 63 110 -33 158 -77 38 -108 65 -108 95 0 52 88 67
125 20 26 -33 45 -33 45 -2 0 18 -8 27 -31 35 -43 15 -117 13 -156 -4z"/>
<path d="M6093 6729 c15 -9 17 -27 17 -154 0 -85 -4 -146 -10 -150 -28 -17 2
-24 119 -24 137 -1 141 0 141 50 0 27 -28 24 -52 -6 -16 -21 -28 -25 -69 -25
l-49 0 0 148 c0 102 4 152 12 160 9 9 -3 12 -57 12 -53 -1 -66 -3 -52 -11z"/>
<path d="M9760 6718 c-26 -18 -36 -32 -38 -58 -5 -52 14 -75 92 -110 74 -33
96 -51 96 -81 0 -32 -29 -49 -81 -49 -46 0 -51 2 -71 35 -23 41 -42 41 -46 2
-3 -23 2 -30 32 -42 19 -8 62 -15 94 -15 68 0 121 28 136 72 16 46 -5 72 -94
118 -60 32 -82 49 -87 68 -9 39 8 57 60 60 42 3 48 0 59 -22 13 -30 48 -35 48
-7 0 30 -26 43 -98 48 -59 4 -71 2 -102 -19z"/>
<path d="M11373 6729 c15 -9 17 -27 17 -154 0 -85 -4 -146 -10 -150 -30 -18 1
-25 115 -25 113 0 125 2 135 19 26 50 -7 71 -42 26 -16 -21 -28 -25 -69 -25
-40 0 -49 3 -50 18 -3 112 4 279 13 289 8 10 -3 13 -58 13 -52 -1 -65 -3 -51
-11z"/>
<path d="M4210 6723 c8 -3 17 -9 20 -13 3 -5 4 -71 2 -149 -3 -118 -6 -141
-18 -141 -8 0 -12 -4 -9 -10 8 -12 135 -13 135 -1 0 5 -7 11 -15 15 -11 4 -15
21 -15 64 l0 59 65 6 c35 3 76 14 89 23 49 31 42 125 -9 144 -15 6 -79 10
-143 9 -64 0 -110 -3 -102 -6z m201 -20 c19 -19 22 -82 5 -108 -14 -21 -24
-25 -61 -25 l-45 0 0 76 0 77 46 -6 c25 -2 50 -9 55 -14z"/>
<path d="M4650 6714 c0 -14 -97 -245 -120 -286 -14 -25 -13 -28 16 -28 20 0
24 4 20 18 -4 10 3 40 14 65 l21 47 65 0 65 0 20 -45 c11 -26 17 -54 14 -65
-6 -18 -2 -20 44 -20 27 0 53 5 56 10 3 6 2 10 -3 10 -6 0 -29 46 -52 103 -89
215 -85 207 -124 207 -26 0 -36 -4 -36 -16z"/>
<path d="M5297 6704 c-7 -37 19 -42 44 -10 15 20 29 26 48 24 l26 -3 3 -135
c3 -126 1 -136 -18 -152 -27 -22 -18 -25 65 -26 66 0 69 1 48 15 -22 15 -23
21 -23 159 l0 144 29 0 c20 0 34 -8 45 -25 23 -35 48 -33 44 3 l-3 27 -151 3
-152 3 -5 -27z"/>
<path d="M5713 6719 c15 -9 17 -27 17 -149 0 -122 -2 -140 -17 -149 -30 -16 1
-20 137 -18 l125 2 3 33 c4 40 -20 44 -44 7 -14 -22 -23 -25 -75 -25 l-59 0 0
70 0 70 55 0 c30 0 55 5 55 10 0 6 -25 10 -55 10 l-55 0 0 70 0 70 59 0 c52 0
61 -3 75 -25 23 -35 46 -32 46 5 l0 30 -142 0 c-102 -1 -138 -4 -125 -11z"/>
<path d="M6458 6718 c15 -15 17 -284 2 -293 -31 -19 0 -26 121 -24 129 1 130
1 140 26 13 35 11 43 -10 43 -10 0 -26 -11 -35 -25 -16 -24 -22 -26 -74 -23
l-57 3 -3 68 -3 67 56 0 c70 0 72 18 3 22 l-53 3 0 65 0 65 57 3 c52 3 58 1
74 -23 21 -33 59 -35 50 -2 -3 12 -6 25 -6 30 0 4 -62 7 -137 7 -107 0 -134
-3 -125 -12z"/>
<path d="M6840 6720 c20 -12 22 -291 3 -297 -32 -11 -7 -23 46 -23 58 0 86 12
56 24 -11 4 -15 21 -15 66 0 57 1 60 24 60 20 0 33 -14 68 -72 44 -73 45 -73
91 -76 44 -3 64 9 34 21 -22 8 -91 131 -76 136 25 8 59 50 59 73 -1 82 -30 98
-187 98 -78 0 -113 -3 -103 -10z m201 -17 c19 -19 22 -81 5 -108 -14 -21 -24
-25 -66 -25 l-50 0 0 76 0 77 51 -5 c27 -3 55 -10 60 -15z"/>
<path d="M7253 6719 c15 -9 17 -27 17 -150 0 -115 -3 -141 -15 -145 -29 -12
-3 -24 51 -24 50 0 68 10 44 25 -6 4 -10 62 -10 142 0 118 2 138 18 149 15 12
7 13 -53 13 -52 0 -66 -2 -52 -10z"/>
<path d="M7583 6713 c-2 -21 -111 -273 -124 -287 -15 -17 -10 -26 15 -26 26 0
43 15 27 24 -5 4 0 28 12 56 l21 50 67 0 66 0 17 -45 c10 -24 15 -54 11 -65
-6 -18 -2 -20 43 -20 27 0 51 3 54 6 3 3 -4 24 -17 47 -12 23 -44 95 -71 160
l-48 117 -36 0 c-27 0 -36 -4 -37 -17z"/>
<path d="M8234 6722 c6 -9 -109 -280 -125 -296 -16 -17 -10 -26 15 -26 27 0
42 15 27 25 -6 3 -1 26 11 55 l21 50 67 0 67 0 17 -45 c10 -24 15 -54 11 -65
-6 -18 -2 -20 50 -20 31 0 55 3 53 8 -28 54 -77 165 -105 235 l-35 87 -40 0
c-21 0 -37 -4 -34 -8z"/>
<path d="M8573 6720 c15 -10 17 -28 17 -151 0 -115 -3 -141 -15 -145 -34 -13
-11 -24 50 -24 61 0 84 11 50 24 -11 4 -15 21 -15 66 0 57 1 60 24 60 20 0 34
-15 71 -75 47 -74 48 -75 89 -75 51 0 64 9 35 24 -24 13 -96 136 -79 136 6 0
22 11 35 25 31 30 33 83 6 116 -18 23 -26 24 -153 27 -97 2 -128 0 -115 -8z
m204 -26 c18 -25 16 -89 -3 -108 -10 -10 -33 -16 -65 -16 l-49 0 0 76 0 77 52
-5 c34 -4 56 -12 65 -24z"/>
<path d="M8927 6704 c-7 -37 19 -42 44 -10 15 20 29 26 48 24 l26 -3 3 -135
c3 -128 2 -136 -19 -152 -12 -10 -20 -18 -18 -19 43 -6 125 -9 137 -4 15 6 14
8 -5 16 -22 8 -23 12 -23 154 l0 145 29 0 c20 0 34 -8 45 -25 23 -35 48 -33
44 3 l-3 27 -151 3 -152 3 -5 -27z"/>
<path d="M9343 6719 c15 -9 17 -27 17 -149 0 -82 -4 -141 -10 -145 -32 -20 0
-25 123 -21 72 2 133 4 135 5 1 1 2 15 2 31 0 37 -23 40 -46 5 -14 -22 -23
-25 -75 -25 l-59 0 0 70 0 70 55 0 c30 0 55 5 55 10 0 6 -25 10 -55 10 l-55 0
0 70 0 70 59 0 c52 0 61 -3 75 -25 23 -35 46 -32 46 5 l0 30 -142 0 c-102 -1
-138 -4 -125 -11z"/>
<path d="M10136 6588 c-33 -79 -65 -150 -73 -159 -20 -23 -16 -29 18 -29 25 0
30 3 25 17 -4 9 1 38 11 65 l17 48 67 0 67 0 18 -47 c10 -27 17 -56 16 -65 -3
-14 5 -17 47 -16 51 0 60 5 42 24 -5 5 -37 74 -70 154 -59 143 -60 145 -93
148 l-33 3 -59 -143z"/>
<path d="M10523 6720 c15 -10 17 -28 17 -151 0 -115 -3 -141 -15 -145 -24 -10
-8 -22 30 -22 38 0 54 12 30 22 -12 4 -15 29 -15 131 l0 126 108 -138 c59 -76
116 -139 125 -141 15 -3 17 10 17 147 0 144 1 151 22 165 22 15 20 16 -32 16
-52 0 -54 -1 -32 -16 20 -14 22 -23 21 -117 l0 -102 -29 35 c-16 19 -57 71
-92 115 l-63 80 -55 3 c-42 1 -51 0 -37 -8z"/>
<path d="M11040 6717 c0 -13 -37 -103 -102 -249 -12 -27 -25 -48 -30 -48 -5 0
-6 -4 -3 -10 3 -5 17 -10 31 -10 21 0 24 4 19 20 -3 11 3 39 14 65 l20 45 65
0 65 0 21 -47 c11 -25 18 -55 14 -65 -5 -16 1 -18 45 -18 50 0 60 6 42 26 -5
5 -20 38 -34 74 -15 36 -41 101 -60 145 -33 78 -35 80 -70 83 -27 2 -37 -1
-37 -11z"/>
<path d="M6140 1640 c-176 -30 -336 -173 -390 -347 -25 -82 -27 -226 -4 -303
41 -137 134 -244 272 -313 l85 -42 126 0 c107 0 135 3 183 22 79 31 127 63
190 126 66 68 113 158 134 262 71 344 -242 656 -596 595z m205 -65 c126 -33
225 -114 290 -236 l40 -74 0 -125 c0 -122 -1 -127 -34 -195 -88 -179 -278
-282 -466 -253 -227 34 -385 216 -385 442 0 126 36 221 116 306 120 128 278
177 439 135z"/>
<path d="M6205 1486 c-55 -24 -69 -50 -75 -139 l-5 -82 -37 -3 -38 -3 0 -60 0
-59 40 0 40 0 0 -180 0 -180 80 0 80 0 0 180 0 180 55 0 c61 0 60 -1 69 72 l5
47 -62 3 -62 3 -3 41 c-4 56 15 74 79 74 l49 0 0 60 0 60 -92 0 c-55 -1 -105
-6 -123 -14z"/>
<path d="M1077 1546 c-67 -18 -126 -62 -162 -120 l-30 -49 -3 -226 c-5 -273 2
-314 61 -378 79 -86 87 -88 372 -88 l250 0 57 28 c61 30 95 68 121 135 14 35
17 80 17 265 0 122 -5 239 -10 259 -17 60 -69 119 -135 153 l-59 30 -215 2
c-156 2 -229 -1 -264 -11z m488 -69 c45 -17 69 -37 99 -81 l26 -39 0 -233 c0
-140 -4 -244 -11 -261 -14 -38 -46 -71 -94 -96 -36 -20 -58 -22 -235 -25 -241
-5 -284 3 -345 61 -34 34 -45 53 -54 97 -13 64 -6 434 9 474 13 34 71 88 112
102 45 17 451 17 493 1z"/>
<path d="M1272 1331 c-107 -27 -177 -139 -151 -244 29 -122 171 -191 284 -138
78 36 114 94 116 186 3 126 -124 227 -249 196z m117 -81 c94 -48 92 -196 -4
-236 -68 -28 -146 -10 -180 42 -26 40 -26 125 0 155 54 60 117 73 184 39z"/>
<path d="M11047 1530 c-88 -16 -174 -64 -251 -143 -144 -144 -182 -321 -114
-523 l32 -95 -41 -125 c-45 -134 -44 -136 24 -110 21 8 76 26 122 40 l83 26
64 -25 c36 -14 95 -28 138 -31 234 -20 440 116 519 344 26 75 28 215 4 293
-20 63 -74 159 -115 203 -42 44 -139 106 -198 127 -62 22 -198 32 -267 19z
m232 -96 c110 -32 223 -144 261 -259 32 -95 26 -225 -14 -307 -39 -83 -115
-161 -189 -197 -125 -61 -239 -62 -365 -6 l-57 26 -73 -24 c-40 -13 -74 -22
-76 -19 -2 2 6 35 19 73 l24 69 -36 77 c-76 165 -47 335 81 464 110 112 267
150 425 103z"/>
<path d="M10925 1243 c-56 -83 -16 -193 115 -323 61 -60 89 -80 145 -103 39
-15 83 -27 98 -27 47 0 98 30 113 66 20 47 19 50 -31 78 -75 41 -83 42 -120 6
l-33 -32 -33 18 c-55 28 -86 54 -118 99 -36 51 -38 65 -11 90 25 23 25 34 -1
106 -21 58 -22 59 -60 59 -33 0 -42 -5 -64 -37z"/>
<path d="M2014 1319 c-45 -13 -107 -77 -122 -125 -27 -92 -10 -187 44 -237 49
-46 173 -60 235 -26 36 19 7 29 -52 20 -98 -16 -166 12 -193 80 -42 103 8 229
102 257 81 25 141 11 191 -42 50 -54 36 -196 -19 -196 -29 0 -38 26 -32 100
l5 68 -47 7 c-85 13 -138 -28 -140 -109 -1 -61 24 -96 72 -96 21 0 48 7 61 17
22 15 25 15 37 -2 19 -25 74 -22 96 5 43 53 45 153 4 213 -45 67 -146 94 -242
66z"/>
<path d="M2360 1145 l0 -185 25 0 c24 0 25 2 25 69 l0 68 62 7 c51 6 67 13 95
41 25 25 33 42 33 68 0 89 -38 117 -160 117 l-80 0 0 -185z m149 142 c61 -21
68 -103 11 -132 -16 -8 -47 -15 -70 -15 l-40 0 0 80 0 80 33 -1 c17 0 47 -5
66 -12z"/>
<path d="M11914 1309 c-39 -11 -62 -35 -46 -51 7 -7 17 -6 33 6 33 23 94 21
119 -4 42 -42 22 -90 -85 -200 -47 -47 -85 -94 -85 -103 0 -15 14 -17 125 -17
118 0 125 1 125 20 0 19 -7 20 -95 20 -52 0 -95 3 -95 6 0 3 27 31 61 62 128
119 146 223 43 262 -30 12 -58 11 -100 -1z"/>
<path d="M12263 1309 c-72 -21 -113 -97 -113 -209 0 -122 81 -195 173 -156 50
20 67 51 67 116 0 47 -4 60 -24 79 -35 33 -97 39 -141 13 -19 -12 -35 -19 -35
-16 0 3 5 25 11 50 16 63 56 94 121 94 42 0 49 3 46 18 -4 20 -55 26 -105 11z
m47 -179 c41 0 56 -104 20 -140 -60 -60 -170 31 -129 106 13 24 62 46 87 38 8
-2 17 -4 22 -4z"/>
<path d="M12518 1194 c-49 -68 -88 -133 -88 -144 0 -18 7 -20 90 -20 l90 0 0
-45 c0 -38 3 -45 20 -45 17 0 20 7 20 45 0 44 1 45 31 45 24 0 30 4 27 18 -2
10 -14 18 -31 20 l-27 3 0 125 c0 122 0 124 -22 123 -18 0 -44 -29 -110 -125z"/>
<path d="M12896 1235 c-4 -47 -4 -90 -1 -95 3 -6 37 -10 74 -10 81 0 101 -15
101 -78 0 -58 -36 -86 -105 -79 -27 2 -58 8 -67 12 -14 5 -18 2 -18 -14 0 -24
32 -36 101 -35 96 1 155 71 130 154 -16 53 -50 75 -121 77 -61 1 -68 11 -55
79 l6 34 74 0 c68 0 75 2 75 20 0 19 -7 20 -94 20 l-93 0 -7 -85z"/>
<path d="M13234 1310 c-40 -12 -61 -37 -46 -52 7 -7 17 -6 33 6 33 23 94 21
119 -4 42 -42 16 -97 -96 -210 -105 -106 -103 -110 52 -110 114 0 125 2 122
18 -3 14 -17 17 -96 20 -50 1 -92 5 -92 8 0 3 33 39 74 79 79 78 102 124 92
178 -4 18 -17 40 -30 49 -30 22 -91 30 -132 18z"/>
<path d="M13560 1298 c-57 -30 -83 -80 -88 -170 -5 -77 9 -126 44 -161 48 -48
139 -41 178 14 18 26 22 110 6 140 -27 49 -127 63 -171 23 -22 -20 -25 -9 -9
48 15 53 61 88 116 88 37 0 44 3 44 20 0 16 -7 20 -38 20 -21 0 -58 -10 -82
-22z m67 -169 c36 -13 43 -25 43 -76 0 -102 -125 -114 -155 -15 -11 39 3 72
38 87 39 17 39 17 74 4z"/>
<path d="M14003 1305 c-51 -22 -68 -65 -68 -175 0 -129 27 -180 103 -195 46
-9 96 18 118 63 23 47 30 160 14 217 -15 53 -36 80 -74 95 -35 13 -54 12 -93
-5z m111 -58 c18 -24 21 -42 21 -122 -1 -79 -4 -99 -21 -122 -25 -33 -66 -41
-99 -19 -49 32 -58 214 -13 271 28 36 82 32 112 -8z"/>
<path d="M14285 1308 c-42 -15 -58 -29 -46 -41 6 -6 21 -5 42 2 49 17 96 14
119 -9 46 -46 3 -110 -75 -110 -37 0 -45 -3 -45 -19 0 -15 9 -19 55 -23 86 -7
120 -55 77 -108 -21 -26 -90 -37 -144 -22 -42 11 -51 7 -38 -18 12 -23 97 -34
151 -20 57 16 89 50 89 95 0 46 -15 73 -47 86 l-25 9 31 29 c55 52 36 130 -37
151 -45 12 -68 12 -107 -2z"/>
<path d="M14600 1309 c-40 -17 -60 -40 -60 -71 0 -35 24 -83 45 -92 13 -5 9
-12 -20 -37 -30 -27 -35 -37 -35 -74 0 -55 23 -83 78 -96 42 -9 100 -1 128 18
19 13 34 50 34 84 0 23 -9 40 -35 65 l-35 33 30 30 c59 58 26 137 -60 146 -25
3 -56 0 -70 -6z m69 -199 c5 0 20 -11 35 -25 54 -50 21 -115 -58 -115 -36 0
-48 5 -65 26 -12 15 -21 33 -21 41 0 24 68 86 86 79 9 -3 19 -6 23 -6z"/>
<path d="M14820 1300 c0 -19 7 -20 100 -20 55 0 100 -2 100 -4 0 -5 -42 -99
-101 -225 -27 -57 -49 -105 -49 -107 0 -2 11 -4 24 -4 17 0 27 7 32 22 4 13
38 90 75 173 38 82 69 158 69 168 0 15 -13 17 -125 17 -118 0 -125 -1 -125
-20z"/>
<path d="M3315 1270 c-4 -16 -15 -32 -26 -35 -22 -7 -21 -30 2 -30 11 0 15
-24 19 -107 6 -128 18 -151 78 -146 45 4 52 31 9 32 -16 1 -32 8 -38 16 -5 8
-8 58 -7 110 l3 95 38 -2 c31 -1 37 2 37 18 0 16 -7 19 -40 19 -38 0 -40 2
-40 30 0 40 -26 40 -35 0z"/>
<path d="M7093 1287 c-79 -30 -132 -113 -133 -209 0 -70 12 -103 52 -145 52
-53 188 -69 244 -28 29 21 11 27 -48 16 -131 -24 -218 40 -218 160 0 35 26
108 48 132 50 56 152 73 222 37 51 -26 70 -64 70 -137 -1 -67 -17 -96 -52 -91
-22 3 -23 8 -26 85 l-3 82 -45 7 c-51 7 -97 -8 -119 -40 -23 -32 -20 -121 5
-146 25 -25 86 -27 112 -3 17 15 19 15 36 0 44 -40 113 -3 126 69 17 87 -28
180 -100 210 -40 17 -127 17 -171 1z"/>
<path d="M7440 1115 l0 -185 25 0 c24 0 25 2 25 69 l0 68 59 7 c55 6 101 29
123 61 11 15 10 93 -2 116 -19 34 -64 49 -150 49 l-80 0 0 -185z m155 141 c39
-17 54 -53 39 -95 -12 -33 -47 -51 -101 -51 l-43 0 0 80 0 80 35 0 c20 0 51
-6 70 -14z"/>
<path d="M8414 1272 c-6 -4 -14 -19 -17 -34 -4 -15 -16 -30 -27 -33 -26 -8
-26 -21 0 -28 18 -5 20 -14 20 -110 0 -102 1 -106 26 -126 35 -27 94 -29 94
-3 0 14 -8 19 -31 19 -17 0 -35 6 -40 14 -5 8 -8 57 -7 109 l3 95 38 3 c53 5
51 32 -2 32 -38 0 -40 1 -43 35 -2 22 -7 32 -14 27z"/>
<path d="M2670 1120 c0 -115 1 -122 25 -145 30 -30 92 -34 137 -7 23 13 32 14
35 5 3 -7 11 -13 19 -13 11 0 14 26 14 140 0 133 -1 140 -20 140 -19 0 -20 -7
-20 -95 0 -104 -10 -137 -47 -154 -32 -15 -55 -14 -79 3 -16 12 -20 30 -24
128 -4 97 -7 113 -22 116 -16 3 -18 -8 -18 -118z"/>
<path d="M2990 1100 c0 -131 1 -140 19 -140 17 0 19 10 23 106 3 97 5 107 27
125 28 23 69 24 99 3 20 -14 22 -23 22 -125 0 -102 1 -109 20 -109 19 0 20 7
20 119 0 117 -1 120 -26 140 -32 25 -109 28 -138 6 -25 -19 -36 -19 -36 0 0 8
-7 15 -15 15 -13 0 -15 -22 -15 -140z"/>
<path d="M3532 1224 c-12 -8 -29 -28 -37 -44 -19 -37 -19 -133 0 -170 42 -81
180 -78 219 5 37 76 10 193 -50 215 -38 15 -107 12 -132 -6z m125 -38 c25 -22
28 -30 28 -90 0 -80 -22 -110 -81 -110 -53 0 -84 39 -84 106 0 103 70 151 137
94z"/>
<path d="M3807 1233 c-4 -3 -7 -66 -7 -140 0 -124 1 -133 19 -133 17 0 19 10
23 101 3 96 4 102 31 125 27 23 71 31 93 16 25 -16 34 -56 34 -146 0 -89 1
-96 20 -96 19 0 20 7 20 106 0 143 -18 173 -101 174 -25 0 -54 -7 -65 -15 -25
-19 -34 -19 -34 0 0 15 -21 21 -33 8z"/>
<path d="M4299 1225 c-54 -29 -77 -139 -43 -210 23 -48 68 -69 139 -63 53 5
68 12 66 35 -1 4 -32 6 -70 4 -64 -2 -71 -1 -85 21 -8 12 -18 35 -21 51 l-7
27 96 0 c73 0 98 3 102 14 10 25 -16 94 -43 115 -30 25 -95 27 -134 6z"/>
<path d="M4502 1228 c3 -7 27 -70 53 -140 45 -119 50 -128 75 -128 25 0 30 9
75 128 26 70 50 133 53 140 3 10 -2 13 -18 10 -19 -2 -29 -21 -64 -115 -22
-62 -43 -113 -46 -113 -3 0 -24 51 -46 113 -35 94 -45 113 -64 115 -16 3 -21
0 -18 -10z"/>
<path d="M4838 1233 c-10 -2 -18 -14 -18 -25 0 -15 4 -18 18 -13 71 29 126 9
120 -44 -3 -24 -8 -26 -58 -31 -85 -9 -120 -36 -120 -95 0 -65 96 -99 154 -54
23 18 27 18 32 5 3 -9 12 -16 20 -16 11 0 14 24 14 118 0 111 -1 120 -23 140
-18 17 -35 22 -73 21 -27 -1 -57 -3 -66 -6z"/>
<path d="M5095 1215 c-47 -46 -29 -83 65 -130 57 -29 70 -40 70 -59 0 -35 -46
-52 -104 -37 -57 14 -56 14 -56 -4 0 -42 149 -46 182 -5 20 24 23 61 8 89 -5
10 -38 31 -74 46 -36 15 -67 34 -70 41 -16 41 32 64 97 47 32 -9 40 -8 44 4 9
23 -16 33 -80 33 -48 0 -62 -4 -82 -25z"/>
<path d="M7750 1091 c0 -152 8 -166 100 -166 48 0 64 4 71 18 12 21 29 22 29
2 0 -8 7 -15 15 -15 13 0 15 22 15 140 0 133 -1 140 -20 140 -19 0 -20 -7 -20
-104 0 -126 -11 -148 -79 -150 -63 -1 -71 15 -71 146 0 101 -1 108 -20 108
-19 0 -20 -7 -20 -119z"/>
<path d="M8070 1070 c0 -133 1 -140 20 -140 19 0 20 7 20 90 0 126 19 160 89
160 51 0 61 -24 61 -144 0 -105 1 -107 22 -104 21 3 22 7 19 118 -2 109 -3
116 -27 138 -31 27 -98 30 -133 5 -22 -15 -25 -15 -36 0 -29 40 -35 18 -35
-123z"/>
<path d="M8612 1194 c-35 -24 -52 -68 -52 -135 0 -58 2 -63 39 -100 31 -31 46
-39 75 -39 91 0 136 48 136 145 0 99 -40 145 -125 145 -30 0 -60 -6 -73 -16z
m133 -46 c24 -29 27 -38 23 -90 -5 -71 -28 -99 -82 -101 -55 -1 -79 28 -84
102 -4 56 -2 62 26 91 42 41 81 41 117 -2z"/>
<path d="M8880 1069 c0 -140 0 -140 23 -137 21 3 22 8 25 105 3 96 4 103 29
123 30 23 71 26 99 6 16 -12 19 -29 22 -125 4 -103 5 -111 24 -111 19 0 20 6
16 121 -3 113 -5 122 -27 140 -28 23 -108 26 -137 4 -25 -19 -34 -19 -34 0 0
8 -9 15 -20 15 -19 0 -20 -7 -20 -141z"/>
<path d="M9384 1198 c-32 -15 -64 -80 -64 -127 0 -49 19 -99 48 -124 40 -36
165 -35 175 2 4 17 -1 18 -62 14 -60 -5 -68 -3 -88 18 -12 13 -25 36 -28 52
l-7 27 96 0 c110 0 117 5 97 70 -15 52 -53 80 -105 79 -22 0 -51 -5 -62 -11z"/>
<path d="M9584 1193 c91 -244 101 -263 127 -263 24 0 30 10 77 130 29 72 52
135 52 141 0 6 -10 9 -21 7 -18 -2 -30 -24 -63 -115 -22 -62 -43 -113 -46
-113 -3 0 -23 51 -45 113 -35 97 -43 112 -64 115 -20 3 -23 0 -17 -15z"/>
<path d="M9918 1203 c-10 -2 -18 -14 -18 -25 0 -15 4 -18 18 -13 71 29 126 9
120 -44 -3 -24 -8 -26 -58 -31 -68 -6 -106 -29 -115 -69 -7 -33 15 -85 40 -95
32 -12 83 -6 108 14 30 24 37 25 37 5 0 -8 7 -15 15 -15 12 0 15 20 15 120 0
110 -2 121 -22 140 -16 15 -34 20 -72 19 -28 -1 -59 -3 -68 -6z"/>
<path d="M10182 1194 c-19 -13 -22 -24 -20 -57 3 -41 5 -43 73 -78 57 -29 71
-40 73 -62 3 -22 -2 -29 -25 -38 -25 -9 -73 -6 -109 8 -9 3 -14 -2 -14 -15 0
-25 48 -38 111 -29 55 7 79 31 79 77 0 43 -16 60 -82 85 -55 20 -81 45 -72 69
9 23 51 31 97 19 32 -9 40 -8 44 4 3 8 0 19 -8 24 -24 15 -122 10 -147 -7z"/>
</g>
</svg>
